<svg xmlns="http://www.w3.org/2000/svg" buffered-rendering="static" xmlns:xlink="http://www.w3.org/1999/xlink" width="256px" height="256px" viewBox="0 0 256 256">
<desc>
This file was created by http://www.h2.dion.ne.jp/~defghi/img2svg3/img2svg3.htm at Sun Dec 18 2022 15:56:21 GMT+0900 (JST)
</desc>
<defs>
<g id="rgb" style="isolation:isolate;">
<g id="r" style="mix-blend-mode:screen;">
<path d="M128 0l-128 0 0 128 0 128 128 0 128 0 0-128 0-128-128 0Z" style="fill:rgb(255,0,0);"/>
<path d="M128 0l-64 0 0 48 0 48 8 0 8 0 0-24 0-24 16 0 16 0 0 8 0 8 8 0 8 0 0 8 0 8 8 0 8 0 0-16 0-16 16 0 16 0 0 24 0 24 8 0 8 0 0-48 0-48-64 0ZM128 112l-64 0 0 32 0 32 16 0 16 0 0 40 0 40 32 0 32 0 0-40 0-40 16 0 16 0 0-32 0-32-64 0Z" style="fill:rgb(221,0,0);"/>
<path d="M128 0l-64 0 0 48 0 48 8 0 8 0 0-24 0-24 16 0 16 0 0 8 0 8 8 0 8 0 0 8 0 8 8 0 8 0 0-16 0-16 16 0 16 0 0 24 0 24 8 0 8 0 0-48 0-48-64 0ZM104 112l-8 0 0 32 0 32 8 0 8 0 0-32 0-32-8 0ZM152 112l-8 0 0 24 0 24 8 0 8 0 0-24 0-24-8 0ZM128 192l-32 0 0 32 0 32 32 0 32 0 0-32 0-32-32 0Z" style="fill:rgb(119,0,0);"/>
<path d="M128 0l-64 0 0 48 0 48 8 0 8 0 0-24 0-24 16 0 16 0 0 8 0 8 8 0 8 0 0 8 0 8 8 0 8 0 0-16 0-16 16 0 16 0 0 24 0 24 8 0 8 0 0-48 0-48-64 0ZM152 144l-8 0 0 8 0 8 8 0 8 0 0-8 0-8-8 0ZM104 160l-8 0 0 8 0 8 8 0 8 0 0-8 0-8-8 0ZM128 192l-32 0 0 32 0 32 32 0 32 0 0-32 0-32-32 0Z" style="fill:rgb(85,0,0);"/>
<path d="M128 0l-64 0 0 48 0 48 8 0 8 0 0-24 0-24 16 0 16 0 0 8 0 8 8 0 8 0 0 8 0 8 8 0 8 0 0-16 0-16 16 0 16 0 0 24 0 24 8 0 8 0 0-48 0-48-64 0ZM152 144l-8 0 0 8 0 8 8 0 8 0 0-8 0-8-8 0ZM104 160l-8 0 0 8 0 8 8 0 8 0 0-8 0-8-8 0ZM128 192l-32 0 0 24 0 24 32 0 32 0 0-24 0-24-32 0Z" style="fill:rgb(51,0,0);"/>
<path d="M128 0l-64 0 0 48 0 48 8 0 8 0 0-24 0-24 16 0 16 0 0 8 0 8 8 0 8 0 0 8 0 8 8 0 8 0 0-16 0-16 16 0 16 0 0 24 0 24 8 0 8 0 0-48 0-48-64 0ZM128 192l-32 0 0 24 0 24 32 0 32 0 0-24 0-24-32 0Z" style="fill:rgb(0,0,0);"/>
</g>
<g id="g" style="mix-blend-mode:screen;">
<path d="M128 0l-128 0 0 128 0 128 128 0 128 0 0-128 0-128-128 0Z" style="fill:rgb(0,255,0);"/>
<path d="M128 0l-64 0 0 96 0 96 16 0 16 0 0 32 0 32 32 0 32 0 0-32 0-32 16 0 16 0 0-96 0-96-64 0ZM88 48l8 0 0 16 0 16-8 0-8 0 0-16 0-16 8 0ZM168 48l8 0 0 16 0 16-8 0-8 0 0-16 0-16 8 0Z" style="fill:rgb(0,221,0);"/>
<path d="M128 0l-64 0 0 56 0 56 16 0 16 0 0 32 0 32-16 0-16 0 0 8 0 8 16 0 16 0 0 32 0 32 32 0 32 0 0-32 0-32 16 0 16 0 0-8 0-8-16 0-16 0 0 8 0 8-32 0-32 0 0-8 0-8 8 0 8 0 0-32 0-32 16 0 16 0 0 24 0 24 8 0 8 0 0-24 0-24 16 0 16 0 0-56 0-56-64 0ZM88 48l8 0 0 16 0 16-8 0-8 0 0-16 0-16 8 0ZM168 48l8 0 0 16 0 16-8 0-8 0 0-16 0-16 8 0Z" style="fill:rgb(0,204,0);"/>
<path d="M128 0l-64 0 0 48 0 48 8 0 8 0 0-24 0-24 8 0 8 0 0 16 0 16 8 0 8 0 0-8 0-8 8 0 8 0 0 8 0 8 16 0 16 0 0-16 0-16 8 0 8 0 0 24 0 24 8 0 8 0 0-48 0-48-64 0ZM104 112l-8 0 0 32 0 32 8 0 8 0 0-32 0-32-8 0ZM152 112l-8 0 0 24 0 24 8 0 8 0 0-24 0-24-8 0ZM128 192l-32 0 0 32 0 32 32 0 32 0 0-32 0-32-32 0Z" style="fill:rgb(0,119,0);"/>
<path d="M128 0l-64 0 0 48 0 48 8 0 8 0 0-24 0-24 8 0 8 0 0 16 0 16 8 0 8 0 0-8 0-8 8 0 8 0 0 8 0 8 16 0 16 0 0-16 0-16 8 0 8 0 0 24 0 24 8 0 8 0 0-48 0-48-64 0ZM152 144l-8 0 0 8 0 8 8 0 8 0 0-8 0-8-8 0ZM104 160l-8 0 0 8 0 8 8 0 8 0 0-8 0-8-8 0ZM128 192l-32 0 0 32 0 32 32 0 32 0 0-32 0-32-32 0Z" style="fill:rgb(0,68,0);"/>
<path d="M128 0l-64 0 0 48 0 48 8 0 8 0 0-24 0-24 8 0 8 0 0 16 0 16 8 0 8 0 0-8 0-8 8 0 8 0 0 8 0 8 16 0 16 0 0-16 0-16 8 0 8 0 0 24 0 24 8 0 8 0 0-48 0-48-64 0ZM152 144l-8 0 0 8 0 8 8 0 8 0 0-8 0-8-8 0ZM104 160l-8 0 0 8 0 8 8 0 8 0 0-8 0-8-8 0ZM128 240l-32 0 0 8 0 8 32 0 32 0 0-8 0-8-32 0Z" style="fill:rgb(0,51,0);"/>
<path d="M128 0l-64 0 0 48 0 48 8 0 8 0 0-24 0-24 8 0 8 0 0 16 0 16 8 0 8 0 0-8 0-8 8 0 8 0 0 8 0 8 16 0 16 0 0-16 0-16 8 0 8 0 0 24 0 24 8 0 8 0 0-48 0-48-64 0ZM128 240l-32 0 0 8 0 8 32 0 32 0 0-8 0-8-32 0Z" style="fill:rgb(0,34,0);"/>
<path d="M128 0l-64 0 0 48 0 48 8 0 8 0 0-24 0-24 8 0 8 0 0 16 0 16 8 0 8 0 0-8 0-8 8 0 8 0 0 8 0 8 16 0 16 0 0-16 0-16 8 0 8 0 0 24 0 24 8 0 8 0 0-48 0-48-64 0Z" style="fill:rgb(0,0,0);"/>
</g>
<g id="b" style="mix-blend-mode:screen;">
<path d="M128 0l-128 0 0 128 0 128 128 0 128 0 0-128 0-128-128 0Z" style="fill:rgb(0,0,255);"/>
<path d="M128 0l-64 0 0 96 0 96 64 0 64 0 0-96 0-96-64 0ZM96 48l16 0 0 16 0 16-16 0-16 0 0-16 0-16 16 0ZM160 48l16 0 0 16 0 16-16 0-16 0 0-16 0-16 16 0ZM128 240l-32 0 0 8 0 8 32 0 32 0 0-8 0-8-32 0Z" style="fill:rgb(0,0,221);"/>
<path d="M128 0l-64 0 0 56 0 56 16 0 16 0 0 32 0 32-16 0-16 0 0 8 0 8 16 0 16 0 0-8 0-8 8 0 8 0 0-32 0-32 16 0 16 0 0 24 0 24 8 0 8 0 0-24 0-24 16 0 16 0 0-56 0-56-64 0ZM96 48l16 0 0 16 0 16-16 0-16 0 0-16 0-16 16 0ZM160 48l16 0 0 16 0 16-16 0-16 0 0-16 0-16 16 0ZM176 176l-16 0 0 8 0 8 16 0 16 0 0-8 0-8-16 0ZM128 240l-32 0 0 8 0 8 32 0 32 0 0-8 0-8-32 0Z" style="fill:rgb(0,0,187);"/>
<path d="M128 0l-64 0 0 48 0 48 8 0 8 0 0-24 0-24 16 0 16 0 0 8 0 8 8 0 8 0 0 8 0 8 8 0 8 0 0-16 0-16 16 0 16 0 0 24 0 24 8 0 8 0 0-48 0-48-64 0ZM104 112l-8 0 0 32 0 32 8 0 8 0 0-32 0-32-8 0ZM152 112l-8 0 0 24 0 24 8 0 8 0 0-24 0-24-8 0ZM128 240l-32 0 0 8 0 8 32 0 32 0 0-8 0-8-32 0Z" style="fill:rgb(0,0,119);"/>
<path d="M128 0l-64 0 0 48 0 48 8 0 8 0 0-24 0-24 16 0 16 0 0 8 0 8 8 0 8 0 0 8 0 8 8 0 8 0 0-16 0-16 16 0 16 0 0 24 0 24 8 0 8 0 0-48 0-48-64 0ZM152 144l-8 0 0 8 0 8 8 0 8 0 0-8 0-8-8 0ZM104 160l-8 0 0 8 0 8 8 0 8 0 0-8 0-8-8 0ZM128 240l-32 0 0 8 0 8 32 0 32 0 0-8 0-8-32 0Z" style="fill:rgb(0,0,51);"/>
<path d="M128 0l-64 0 0 48 0 48 8 0 8 0 0-24 0-24 16 0 16 0 0 8 0 8 8 0 8 0 0 8 0 8 8 0 8 0 0-16 0-16 16 0 16 0 0 24 0 24 8 0 8 0 0-48 0-48-64 0ZM128 240l-32 0 0 8 0 8 32 0 32 0 0-8 0-8-32 0Z" style="fill:rgb(0,0,0);"/>
</g>
</g>
</defs>
<use xlink:href="#rgb"/>
</svg>